<svg id="logo" xmlns="http://www.w3.org/2000/svg" width="220" height="48.713" viewBox="0 0 220 48.713">
  <path id="Caminho_5" data-name="Caminho 5" d="M1591.46,124.6V104.193h6.221v20.14c0,4.746,3.265,7.94,8.117,7.94,4.81,0,8.031-3.194,8.031-7.94v-20.14h6.22V124.6c0,7.719-5.691,12.865-14.251,12.865C1597.2,137.465,1591.46,132.318,1591.46,124.6Zm54.617-2.618v15.039h-6V122.958c0-3.1-2.206-5.146-5.559-5.146s-5.559,2.042-5.559,5.146v14.063h-6V113.11h5.78l.087,3.016a9.67,9.67,0,0,1,7.766-3.46C1642.283,112.667,1646.077,116.392,1646.077,121.982Zm2.408-14.195a3.463,3.463,0,0,1,3.574-3.593,3.427,3.427,0,0,1,3.53,3.593,3.392,3.392,0,0,1-3.53,3.549A3.427,3.427,0,0,1,1648.486,107.787Zm.574,5.322h6V137.02h-6Zm8.727,20.229,2.338-4.215a13.529,13.529,0,0,0,8.869,3.151c4.1,0,6.485-1.419,6.485-3.949,0-2.662-2.736-3.814-6.839-4.968l-1.853-.532c-5.382-1.464-9.4-3.727-9.4-9.094,0-5.99,4.809-9.981,12.089-9.981a17.073,17.073,0,0,1,11.03,3.77l-2.781,4.347a12.5,12.5,0,0,0-8.205-2.928c-3.442,0-5.692,1.464-5.692,3.771,0,2.618,2.6,3.549,5.823,4.48l1.9.532c5.03,1.375,10.367,4.126,10.367,10.025,0,5.812-5.029,9.715-12.53,9.715A16.959,16.959,0,0,1,1657.786,133.338Zm47.416-11.356v15.039h-5.779l-.133-3.416a8.494,8.494,0,0,1-7.236,3.859c-4.942,0-8.251-2.972-8.251-7.409,0-4.612,4.06-7.629,10.148-7.629a27.77,27.77,0,0,1,5.251.531v-.444c0-3.193-2.118-5.1-5.736-5.1a8.371,8.371,0,0,0-5.559,1.908l-2.6-3.549c2.56-2.085,5.559-3.106,9.707-3.106C1701.1,112.667,1705.2,116.348,1705.2,121.982Zm-6,5.057a23.645,23.645,0,0,0-4.5-.487c-2.824,0-4.633,1.33-4.633,3.371,0,1.951,1.279,3.238,3.707,3.238C1696.555,133.161,1699.158,130.943,1699.2,127.039Zm8.905-22.846h6v32.85h-6Zm32.341,23.046h-17.207c.441,3.371,2.206,5.5,5.692,5.5a7.37,7.37,0,0,0,5.823-2.839l4.633,2.352a12.174,12.174,0,0,1-10.368,5.234c-7.28,0-12.134-4.879-12.134-12.244,0-7.542,4.721-12.554,11.869-12.554,7.1,0,11.869,4.79,11.869,12.021A21.908,21.908,0,0,1,1740.448,127.239Zm-17.207-4.081h11.074c-.441-3.637-2.337-5.723-5.559-5.723C1725.579,117.435,1723.727,119.521,1723.241,123.158Zm19.422,11.489,2.25-3.636a12.943,12.943,0,0,0,6.84,1.774c2.206,0,3.706-.931,3.706-2.4s-1.677-2.262-4.059-2.883l-1.986-.532c-4.014-1.065-6.75-2.616-6.75-6.387,0-4.747,3.706-7.9,9.353-7.9a15.672,15.672,0,0,1,8.957,2.351l-2.515,3.948a12.17,12.17,0,0,0-6.045-1.553c-2.162,0-3.662.8-3.662,2.174,0,1.419,1.5,2.085,3.574,2.618l1.986.577c4.059,1.065,7.28,2.928,7.28,7.142,0,4.524-3.972,7.54-9.927,7.54C1748.046,137.486,1744.826,136.556,1742.664,134.647Z" transform="translate(-1541.592 -100.481)" fill="#164194"/>
  <path id="Caminho_6" data-name="Caminho 6" d="M1592.37,1313.987a3.381,3.381,0,0,1,3.634-3.523,3.512,3.512,0,0,1,2.706,1.109l-.825.839a2.316,2.316,0,0,0-1.864-.857,2.451,2.451,0,1,0,2.022,3.811l.88.793a3.678,3.678,0,0,1-6.553-2.172Zm13.02,1.407h-3.615a1.144,1.144,0,0,0,1.195,1.156,1.549,1.549,0,0,0,1.224-.6l.973.494a2.559,2.559,0,0,1-2.179,1.1,2.606,2.606,0,0,1-.055-5.208,2.37,2.37,0,0,1,2.493,2.525A4.573,4.573,0,0,1,1605.39,1315.394Zm-3.615-.857h2.326c-.092-.765-.491-1.2-1.167-1.2S1601.877,1313.773,1601.775,1314.537Zm10.49-.243v3.159h-1.26V1314.5a1.172,1.172,0,0,0-2.336,0v2.953h-1.261v-5.023h1.215l.019.634a2.031,2.031,0,0,1,1.631-.727A1.866,1.866,0,0,1,1612.265,1314.294Zm5.337,1.995v1.024a3.327,3.327,0,0,1-1.27.233,1.477,1.477,0,0,1-1.538-1.584v-2.5h-.826v-1.036h.826v-1.471h1.26v1.471h1.474v1.036h-1.474v2.236a.683.683,0,0,0,.686.755A2.182,2.182,0,0,0,1617.6,1316.289Zm4.93-3.952-.083,1.165c-1.039,0-1.725.5-1.725,1.258v2.693h-1.26v-5.023h1.214l.019.671A2.252,2.252,0,0,1,1622.531,1312.337Zm1.222,2.6a2.675,2.675,0,1,1,2.679,2.61A2.5,2.5,0,0,1,1623.753,1314.937Zm4.04,0a1.374,1.374,0,1,0-1.361,1.519A1.365,1.365,0,0,0,1627.793,1314.937Zm6.718-.093v-4.287h1.307v4.231a1.7,1.7,0,0,0,3.392,0v-4.231h1.307v4.287a3.02,3.02,0,0,1-6.006,0Zm13.251-.55v3.159h-1.26V1314.5a1.171,1.171,0,0,0-2.336,0v2.953h-1.26v-5.023h1.214l.019.634a2.03,2.03,0,0,1,1.631-.727A1.866,1.866,0,0,1,1647.763,1314.294Zm2.12-3.429a.727.727,0,0,1,.751-.755.719.719,0,0,1,.741.755.712.712,0,0,1-.741.745A.719.719,0,0,1,1649.883,1310.865Zm.12,1.565h1.261v5.023H1650Zm2.975,0h1.38l1.363,3.579,1.353-3.579h1.38l-2.1,5.023h-1.262Zm11.7,2.964h-3.615a1.144,1.144,0,0,0,1.2,1.156,1.549,1.549,0,0,0,1.224-.6l.974.494a2.559,2.559,0,0,1-2.178,1.1,2.606,2.606,0,0,1-.056-5.208,2.37,2.37,0,0,1,2.493,2.525A4.549,4.549,0,0,1,1664.682,1315.394Zm-3.615-.857h2.326c-.091-.765-.491-1.2-1.167-1.2S1661.169,1313.773,1661.068,1314.537Zm8.7-2.2-.084,1.165c-1.037,0-1.723.5-1.723,1.258v2.693h-1.26v-5.023h1.214l.019.671A2.255,2.255,0,0,1,1669.769,1312.337Zm1.454,4.613.473-.764a2.711,2.711,0,0,0,1.436.373c.463,0,.78-.2.78-.5s-.353-.474-.854-.605l-.416-.111c-.843-.225-1.418-.55-1.418-1.343,0-1,.778-1.658,1.965-1.658a3.288,3.288,0,0,1,1.882.495l-.529.828a2.562,2.562,0,0,0-1.27-.326c-.455,0-.769.168-.769.457s.315.438.75.549l.418.122c.853.223,1.529.615,1.529,1.5,0,.952-.833,1.585-2.086,1.585A2.838,2.838,0,0,1,1671.223,1316.95Zm5.9-6.085a.726.726,0,0,1,.75-.755.719.719,0,0,1,.742.755.712.712,0,0,1-.742.745A.719.719,0,0,1,1677.125,1310.865Zm.121,1.565h1.26v5.023h-1.26Zm6.718,3.859v1.024a3.331,3.331,0,0,1-1.27.233,1.477,1.477,0,0,1-1.537-1.584v-2.5h-.826v-1.036h.826v-1.471h1.26v1.471h1.473v1.036h-1.473v2.236a.682.682,0,0,0,.686.755A2.183,2.183,0,0,0,1683.964,1316.289Zm5.986-1.995v3.159h-1.213l-.029-.717a1.78,1.78,0,0,1-1.519.81,1.562,1.562,0,0,1-1.734-1.556c0-.969.853-1.6,2.132-1.6a5.737,5.737,0,0,1,1.1.113v-.094c0-.671-.444-1.071-1.2-1.071a1.757,1.757,0,0,0-1.168.4l-.546-.746a3.027,3.027,0,0,1,2.038-.652A1.939,1.939,0,0,1,1689.95,1314.294Zm-1.261,1.063a4.919,4.919,0,0,0-.945-.1c-.592,0-.972.279-.972.708,0,.41.269.68.778.68A1.185,1.185,0,0,0,1688.689,1315.357Zm-.5-3.662h-1.076l1.261-1.5h1.464Zm7.07.643-.084,1.165c-1.038,0-1.723.5-1.723,1.258v2.693h-1.26v-5.023h1.214l.019.671A2.254,2.254,0,0,1,1695.259,1312.337Zm1.619-1.472a.727.727,0,0,1,.751-.755.719.719,0,0,1,.742.755.712.712,0,0,1-.742.745A.719.719,0,0,1,1696.879,1310.865Zm.121,1.565h1.26v5.023H1697Zm3.271,2.507a2.675,2.675,0,1,1,2.678,2.61A2.5,2.5,0,0,1,1700.271,1314.937Zm4.04,0a1.375,1.375,0,1,0-1.362,1.519A1.366,1.366,0,0,0,1704.311,1314.937Zm6.531,1.743.491-.886a2.839,2.839,0,0,0,1.863.663c.863,0,1.362-.3,1.362-.83,0-.559-.575-.8-1.437-1.043l-.389-.112c-1.13-.308-1.974-.783-1.974-1.911,0-1.258,1.011-2.1,2.54-2.1a3.585,3.585,0,0,1,2.317.793l-.584.913a2.627,2.627,0,0,0-1.724-.615c-.723,0-1.2.307-1.2.792,0,.55.547.745,1.223.941l.4.112c1.057.289,2.178.866,2.178,2.106,0,1.22-1.057,2.04-2.632,2.04A3.564,3.564,0,0,1,1710.843,1316.68Zm11.26-2.386v3.159h-1.213l-.029-.717a1.781,1.781,0,0,1-1.52.81,1.562,1.562,0,0,1-1.733-1.556c0-.969.853-1.6,2.132-1.6a5.746,5.746,0,0,1,1.1.113v-.094c0-.671-.445-1.071-1.2-1.071a1.756,1.756,0,0,0-1.168.4l-.546-.746a3.028,3.028,0,0,1,2.038-.652A1.939,1.939,0,0,1,1722.1,1314.294Zm-1.261,1.063a4.923,4.923,0,0,0-.945-.1c-.593,0-.973.279-.973.708,0,.41.269.68.778.68A1.186,1.186,0,0,0,1720.842,1315.357Zm3.51-5.172h1.26v7.268h-1.26Zm8.24,5.209h-3.615a1.144,1.144,0,0,0,1.2,1.156,1.549,1.549,0,0,0,1.223-.6l.974.494a2.559,2.559,0,0,1-2.179,1.1,2.606,2.606,0,0,1-.055-5.208,2.37,2.37,0,0,1,2.493,2.525A4.605,4.605,0,0,1,1732.592,1315.394Zm-3.615-.857h2.326c-.093-.765-.491-1.2-1.167-1.2S1729.078,1313.773,1728.977,1314.537Zm5.4,2.412.473-.764a2.71,2.71,0,0,0,1.436.373c.465,0,.779-.2.779-.5s-.353-.474-.854-.605l-.417-.111c-.843-.225-1.418-.55-1.418-1.343,0-1,.778-1.658,1.966-1.658a3.286,3.286,0,0,1,1.881.495l-.528.828a2.564,2.564,0,0,0-1.27-.326c-.453,0-.769.168-.769.457s.316.438.75.549l.418.122c.853.223,1.529.615,1.529,1.5,0,.952-.833,1.585-2.085,1.585A2.84,2.84,0,0,1,1734.378,1316.95Zm5.9-6.085a.746.746,0,1,1,1.492,0,.746.746,0,0,1-1.492,0Zm.12,1.565h1.26v5.023h-1.26Zm7.683,1.864v3.159h-1.214l-.028-.717a1.781,1.781,0,0,1-1.52.81,1.562,1.562,0,0,1-1.734-1.556c0-.969.854-1.6,2.133-1.6a5.745,5.745,0,0,1,1.1.113v-.094c0-.671-.445-1.071-1.205-1.071a1.757,1.757,0,0,0-1.167.4l-.546-.746a3.029,3.029,0,0,1,2.039-.652A1.94,1.94,0,0,1,1748.083,1314.294Zm-1.261,1.063a4.917,4.917,0,0,0-.945-.1c-.593,0-.974.279-.974.708,0,.41.268.68.778.68A1.186,1.186,0,0,0,1746.822,1315.357Zm8.359-1.062v3.159h-1.26V1314.5a1.171,1.171,0,0,0-2.336,0v2.953h-1.26v-5.023h1.214l.019.634a2.03,2.03,0,0,1,1.631-.727A1.867,1.867,0,0,1,1755.181,1314.294Zm1.945.643a2.675,2.675,0,1,1,2.678,2.61A2.5,2.5,0,0,1,1757.126,1314.937Zm4.04,0a1.375,1.375,0,1,0-1.362,1.519A1.366,1.366,0,0,0,1761.166,1314.937Z" transform="translate(-1542.474 -1268.834)" fill="#164194"/>
  <path id="Caminho_7" data-name="Caminho 7" d="M321.1,0h-7.6c-38.77,26.334,42.2-6.4-12.85,38.909-.4.325-2.469,2.1-4.937,4.214a23.068,23.068,0,0,0,10.28,2.231c11.668,0,19.426-7.014,19.426-17.537V0Z" transform="translate(-286.444)" fill="#e30613"/>
  <path id="Caminho_8" data-name="Caminho 8" d="M20.452,22.385c6.309-5,.274-6.382-5.755-6.64-2.472-.1-7.4-.113-7.306-2.66a2.276,2.276,0,0,1,.087-.543c.6-2.215,6.247-8.02,14.7-12.542H0V27.817a17.59,17.59,0,0,0,2.175,8.737c5.455-4.189,12.772-9.807,18.277-14.169Z" transform="translate(0 0)" fill="#164194"/>
</svg>
